<svg width="20" height="20" viewBox="0 0 20 20" fill="none" xmlns="http://www.w3.org/2000/svg">
<path d="M16.8571 8.28571H11.7143V3.14286C11.7143 2.51179 11.2025 2 10.5714 2H9.42857C8.7975 2 8.28571 2.51179 8.28571 3.14286V8.28571H3.14286C2.51179 8.28571 2 8.7975 2 9.42857V10.5714C2 11.2025 2.51179 11.7143 3.14286 11.7143H8.28571V16.8571C8.28571 17.4882 8.7975 18 9.42857 18H10.5714C11.2025 18 11.7143 17.4882 11.7143 16.8571V11.7143H16.8571C17.4882 11.7143 18 11.2025 18 10.5714V9.42857C18 8.7975 17.4882 8.28571 16.8571 8.28571Z" fill="#5C5F62"/>
</svg>
