<svg width="20" height="20" viewBox="0 0 20 20" fill="none" xmlns="http://www.w3.org/2000/svg">
<path d="M10.4211 20C11.7489 20 12.8259 18.8809 12.8259 17.5H8.01618C8.01618 18.8809 9.09324 20 10.4211 20ZM18.5184 14.152C17.7921 13.341 16.433 12.1211 16.433 8.125C16.433 5.08984 14.3849 2.66016 11.6233 2.06406V1.25C11.6233 0.559766 11.085 0 10.4211 0C9.75715 0 9.2188 0.559766 9.2188 1.25V2.06406C6.45717 2.66016 4.40906 5.08984 4.40906 8.125C4.40906 12.1211 3.05005 13.341 2.32373 14.152C2.09817 14.4039 1.99817 14.7051 2.00003 15C2.00419 15.6406 2.48802 16.25 3.20681 16.25H17.6353C18.3541 16.25 18.8383 15.6406 18.8421 15C18.8439 14.7051 18.7439 14.4035 18.5184 14.152Z" fill="#5C5F62"/>
</svg>
