<svg width="20" height="20" viewBox="0 0 20 20" fill="none" xmlns="http://www.w3.org/2000/svg">
<path d="M12.6536 10L16.6337 6.01994C17.1221 5.53153 17.1221 4.73966 16.6337 4.25085L15.7491 3.36631C15.2607 2.8779 14.4689 2.8779 13.9801 3.36631L10 7.34636L6.01994 3.36631C5.53153 2.8779 4.73966 2.8779 4.25085 3.36631L3.36631 4.25085C2.8779 4.73926 2.8779 5.53114 3.36631 6.01994L7.34636 10L3.36631 13.9801C2.8779 14.4685 2.8779 15.2603 3.36631 15.7491L4.25085 16.6337C4.73926 17.1221 5.53153 17.1221 6.01994 16.6337L10 12.6536L13.9801 16.6337C14.4685 17.1221 15.2607 17.1221 15.7491 16.6337L16.6337 15.7491C17.1221 15.2607 17.1221 14.4689 16.6337 13.9801L12.6536 10Z" fill="#5C5F62"/>
</svg>
