<svg width="20" height="20" viewBox="0 0 20 20" fill="none" xmlns="http://www.w3.org/2000/svg">
<path d="M17.5265 4.73247C18.1512 4.10776 18.1512 3.09324 17.5265 2.46853C16.9018 1.84382 15.8872 1.84382 15.2625 2.46853L10 7.73606L4.73247 2.47353C4.10776 1.84882 3.09324 1.84882 2.46853 2.47353C1.84382 3.09824 1.84382 4.11276 2.46853 4.73747L7.73606 10L2.47353 15.2675C1.84882 15.8922 1.84882 16.9068 2.47353 17.5315C3.09824 18.1562 4.11276 18.1562 4.73747 17.5315L10 12.2639L15.2675 17.5265C15.8922 18.1512 16.9068 18.1512 17.5315 17.5265C18.1562 16.9018 18.1562 15.8872 17.5315 15.2625L12.2639 10L17.5265 4.73247Z" fill="#4B5563"/>
</svg>
