<svg width="20" height="20" viewBox="0 0 20 20" fill="none" xmlns="http://www.w3.org/2000/svg">
<path d="M1.6538 4.52382H18.3257C18.6526 4.52382 18.9795 4.19692 18.9795 3.87002V2.23552C18.9795 1.8269 18.6526 1.5 18.3257 1.5H1.6538C1.3269 1.5 1 1.8269 1 2.1538V3.78829C1 4.19692 1.3269 4.52382 1.6538 4.52382Z" fill="#5C5F62"/>
<path d="M1.6538 11.1435H18.3257C18.6526 11.1435 18.9795 10.8166 18.9795 10.4897V8.85521C18.9795 8.44659 18.6526 8.20142 18.3257 8.20142H1.6538C1.3269 8.20142 1 8.44659 1 8.85521V10.4897C1 10.8983 1.3269 11.1435 1.6538 11.1435Z" fill="#5C5F62"/>
<path d="M1.49035 17.8452H13.5039C13.7491 17.8452 13.9942 17.5183 13.9942 17.1914V15.5569C13.9942 15.1483 13.7491 14.9031 13.5039 14.9031H1.49035C1.24517 14.9031 1 15.23 1 15.5569V17.1914C1 17.5183 1.24517 17.8452 1.49035 17.8452Z" fill="#5C5F62"/>
<path d="M16.6911 14.4943L18.816 16.047C19.0612 16.2105 19.0612 16.4557 18.816 16.6191L16.6911 18.1719C16.3642 18.4988 15.7104 18.2536 15.7104 17.845V14.7394C15.7104 14.4125 16.3642 14.2491 16.6911 14.4943Z" fill="#5C5F62"/>
</svg>
