<svg width="20" height="20" viewBox="0 0 20 20" fill="none" xmlns="http://www.w3.org/2000/svg">
<path d="M17.5594 6.43849L16.1187 7.87918C15.9718 8.02606 15.7343 8.02606 15.5874 7.87918L12.1185 4.41027C11.9716 4.26339 11.9716 4.02588 12.1185 3.87899L13.5592 2.4383C14.1436 1.8539 15.0936 1.8539 15.6811 2.4383L17.5594 4.31651C18.1469 4.90092 18.1469 5.85096 17.5594 6.43849ZM10.8809 5.11655L2.67429 13.3232L2.01176 17.1202C1.92113 17.6328 2.36803 18.0765 2.88055 17.989L6.6776 17.3234L14.8842 9.11674C15.0311 8.96985 15.0311 8.73234 14.8842 8.58546L11.4153 5.11655C11.2653 4.96967 11.0278 4.96967 10.8809 5.11655ZM4.74939 15.2483H6.24946V16.3827L4.23374 16.7358L3.26182 15.7639L3.61496 13.7482H4.74939V15.2483Z" fill="#5C5F62"/>
</svg>
