<svg width="20" height="20" viewBox="0 0 20 20" fill="none" xmlns="http://www.w3.org/2000/svg">
<path d="M9.73484 6.70576L3.3336 11.5486V16.7754C3.3336 17.0573 3.58231 17.2857 3.88911 17.2857L7.77978 17.2765C8.0855 17.2751 8.33252 17.047 8.33252 16.7662V13.7138C8.33252 13.432 8.58123 13.2035 8.88803 13.2035H11.1101C11.4169 13.2035 11.6656 13.432 11.6656 13.7138V16.764C11.6651 16.8996 11.7235 17.0298 11.8277 17.1258C11.9319 17.2218 12.0735 17.2758 12.2211 17.2758L16.1104 17.2857C16.4172 17.2857 16.6659 17.0573 16.6659 16.7754V11.5451L10.266 6.70576C10.111 6.59097 9.88986 6.59097 9.73484 6.70576ZM19.8462 9.99736L11.0577 3.34877C10.4424 2.88374 9.55497 2.88374 8.93976 3.34877L0.151204 9.99736C0.0660001 10.0621 0.0122748 10.1552 0.00185597 10.2563C-0.00856286 10.3574 0.0251789 10.4581 0.0956531 10.5363L0.981001 11.525C1.05129 11.6035 1.15268 11.6531 1.26282 11.6629C1.37296 11.6726 1.4828 11.6417 1.56811 11.577L9.73484 5.39817C9.88986 5.28339 10.111 5.28339 10.266 5.39817L18.4331 11.577C18.5183 11.6417 18.628 11.6727 18.738 11.6631C18.8481 11.6536 18.9495 11.6042 19.0199 11.526L19.9052 10.5373C19.9756 10.4586 20.009 10.3574 19.9979 10.2561C19.9868 10.1547 19.9322 10.0616 19.8462 9.99736Z" fill="#5C5F62"/>
</svg>
