<svg width="20" height="20" viewBox="0 0 20 20" fill="none" xmlns="http://www.w3.org/2000/svg">
<path d="M19.5 8.5H17.5V6.5C17.5 6.225 17.275 6 17 6H16C15.725 6 15.5 6.225 15.5 6.5V8.5H13.5C13.225 8.5 13 8.725 13 9V10C13 10.275 13.225 10.5 13.5 10.5H15.5V12.5C15.5 12.775 15.725 13 16 13H17C17.275 13 17.5 12.775 17.5 12.5V10.5H19.5C19.775 10.5 20 10.275 20 10V9C20 8.725 19.775 8.5 19.5 8.5ZM7 10C9.20938 10 11 8.20937 11 6C11 3.79062 9.20938 2 7 2C4.79063 2 3 3.79062 3 6C3 8.20937 4.79063 10 7 10ZM9.8 11H9.27812C8.58438 11.3188 7.8125 11.5 7 11.5C6.1875 11.5 5.41875 11.3188 4.72188 11H4.2C1.88125 11 0 12.8813 0 15.2V16.5C0 17.3281 0.671875 18 1.5 18H12.5C13.3281 18 14 17.3281 14 16.5V15.2C14 12.8813 12.1188 11 9.8 11Z" fill="#5C5F62"/>
</svg>
