<svg width="20" height="20" viewBox="0 0 20 20" fill="none" xmlns="http://www.w3.org/2000/svg">
<path d="M10.5 10C13.1828 10 15.3571 7.76172 15.3571 5C15.3571 2.23828 13.1828 0 10.5 0C7.81719 0 5.64286 2.23828 5.64286 5C5.64286 7.76172 7.81719 10 10.5 10ZM13.9 11.25H13.2663C12.4239 11.6484 11.4866 11.875 10.5 11.875C9.51339 11.875 8.57991 11.6484 7.73371 11.25H7.1C4.28437 11.25 2 13.6016 2 16.5V18.125C2 19.1602 2.81585 20 3.82143 20H17.1786C18.1842 20 19 19.1602 19 18.125V16.5C19 13.6016 16.7156 11.25 13.9 11.25Z" fill="#5C5F62"/>
</svg>
