<svg width="20" height="20" viewBox="0 0 20 20" fill="none" xmlns="http://www.w3.org/2000/svg">
<path d="M0.714286 4.44388H19.2857C19.6802 4.44388 20 4.10126 20 3.67857V1.76531C20 1.34262 19.6802 1 19.2857 1H0.714286C0.319777 1 0 1.34262 0 1.76531V3.67857C0 4.10126 0.319777 4.44388 0.714286 4.44388ZM0.714286 12.0969H19.2857C19.6802 12.0969 20 11.7543 20 11.3316V9.41837C20 8.99568 19.6802 8.65306 19.2857 8.65306H0.714286C0.319777 8.65306 0 8.99568 0 9.41837V11.3316C0 11.7543 0.319777 12.0969 0.714286 12.0969ZM0.714286 19.75H19.2857C19.6802 19.75 20 19.4074 20 18.9847V17.0714C20 16.6487 19.6802 16.3061 19.2857 16.3061H0.714286C0.319777 16.3061 0 16.6487 0 17.0714V18.9847C0 19.4074 0.319777 19.75 0.714286 19.75Z" fill="#5C5F62"/>
</svg>
