<svg width="20" height="20" viewBox="0 0 20 20" fill="none" xmlns="http://www.w3.org/2000/svg">
<path d="M14.4444 8.55604V3.15887C14.4444 1.96812 13.4479 1 12.2222 1H2.22222C0.996528 1 0 1.96812 0 3.15887V8.55604C0 9.74679 0.996528 10.7149 2.22222 10.7149V12.5432C2.22222 12.8131 2.53819 12.9682 2.76042 12.8063L5.63542 10.7115H12.2222C13.4479 10.7149 14.4444 9.74679 14.4444 8.55604ZM17.7778 6.39717H15.5556V8.55604C15.5556 10.3405 14.059 11.7943 12.2222 11.7943H6.66667V13.9532C6.66667 15.144 7.66319 16.1121 8.88889 16.1121H13.2535L16.1285 18.2069C16.3507 18.3688 16.6667 18.2136 16.6667 17.9437V16.1121H17.7778C19.0035 16.1121 20 15.144 20 13.9532V8.55604C20 7.36529 19.0035 6.39717 17.7778 6.39717Z" fill="#5C5F62"/>
</svg>
