<svg width="20" height="20" viewBox="0 0 20 20" fill="none" xmlns="http://www.w3.org/2000/svg">
<path d="M6 9.55172C7.93437 9.55172 9.5 8.08636 9.5 6.27586C9.5 4.46536 7.93437 3 6 3C4.06563 3 2.5 4.46536 2.5 6.27586C2.5 8.08636 4.06563 9.55172 6 9.55172ZM8.4 10.4877H8.14062C7.49063 10.7802 6.76875 10.9557 6 10.9557C5.23125 10.9557 4.5125 10.7802 3.85938 10.4877H3.6C1.6125 10.4877 0 11.9969 0 13.8571V14.6995C0 15.4746 0.671875 16.1034 1.5 16.1034H10.5C11.3281 16.1034 12 15.4746 12 14.6995V13.8571C12 11.9969 10.3875 10.4877 8.4 10.4877ZM15 9.55172C16.6562 9.55172 18 8.29403 18 6.74384C18 5.19366 16.6562 3.93596 15 3.93596C13.3438 3.93596 12 5.19366 12 6.74384C12 8.29403 13.3438 9.55172 15 9.55172ZM16.5 10.4877H16.3813C15.9469 10.6281 15.4875 10.7217 15 10.7217C14.5125 10.7217 14.0531 10.6281 13.6187 10.4877H13.5C12.8625 10.4877 12.275 10.6603 11.7594 10.9381C12.5219 11.7074 13 12.7281 13 13.8571V14.9803C13 15.0446 12.9844 15.1061 12.9813 15.1675H18.5C19.3281 15.1675 20 14.5386 20 13.7635C20 11.953 18.4344 10.4877 16.5 10.4877Z" fill="#5C5F62"/>
</svg>
