<svg width="20" height="20" viewBox="0 0 20 20" fill="none" xmlns="http://www.w3.org/2000/svg">
<path d="M18.8731 6.01134H16.9943C16.9943 5.18431 16.32 4.51001 15.493 4.51001C14.6659 4.51001 13.9916 5.18431 13.9916 6.01134H12.1128C11.7901 6.01134 11.499 6.14678 11.2944 6.36578V16.1749C11.499 16.391 11.7901 16.5293 12.1128 16.5293H18.8731C19.4956 16.5293 19.9999 16.025 19.9999 15.4026V7.13806C19.9999 6.51563 19.4927 6.01134 18.8731 6.01134ZM15.493 5.44942C15.8042 5.44942 16.0549 5.70301 16.0549 6.01134C16.0549 6.31968 15.8013 6.57326 15.493 6.57326C15.1846 6.57326 14.9311 6.31968 14.9311 6.01134C14.9311 5.70301 15.1818 5.44942 15.493 5.44942ZM17.7464 8.12358C17.7464 8.20139 17.683 8.26478 17.6052 8.26478H13.3807C13.3029 8.26478 13.2395 8.20139 13.2395 8.12358V7.65388C13.2395 7.57607 13.3029 7.51268 13.3807 7.51268H17.6052C17.683 7.51268 17.7464 7.57607 17.7464 7.65388V8.12358Z" fill="#5C5F62"/>
<path d="M11.0655 5.22743V15.3708C11.0655 16.1344 10.4459 16.754 9.6823 16.754H1.38319C0.619552 16.754 0 16.1344 0 15.3708V5.22743C0 4.4638 0.619552 3.84425 1.38319 3.84425H3.6885C3.6885 2.82703 4.51553 2 5.53274 2C6.54996 2 7.37699 2.82703 7.37699 3.84425H9.6823C10.4459 3.84425 11.0655 4.4638 11.0655 5.22743ZM5.53274 3.15265C5.14949 3.15265 4.84115 3.46099 4.84115 3.84425C4.84115 4.22751 5.14949 4.53584 5.53274 4.53584C5.916 4.53584 6.22434 4.22751 6.22434 3.84425C6.22434 3.46099 5.916 3.15265 5.53274 3.15265ZM8.29911 6.43772V5.86139C8.29911 5.7663 8.22131 5.6885 8.12622 5.6885H2.93927C2.84418 5.6885 2.76637 5.7663 2.76637 5.86139V6.43772C2.76637 6.53281 2.84418 6.61062 2.93927 6.61062H8.12622C8.22131 6.61062 8.29911 6.53281 8.29911 6.43772Z" fill="#5C5F62"/>
</svg>
