<svg width="20" height="20" viewBox="0 0 20 20" fill="none" xmlns="http://www.w3.org/2000/svg">
<path d="M18.7552 16.5622L15.2499 13.0574C15.0917 12.8992 14.8772 12.8113 14.6522 12.8113H14.0791C15.0495 11.5705 15.6261 10.0097 15.6261 8.31179C15.6261 4.27273 12.3528 1 8.31303 1C4.27329 1 1 4.27273 1 8.31179C1 12.3508 4.27329 15.6236 8.31303 15.6236C10.0112 15.6236 11.5723 15.0471 12.8134 14.0768V14.6498C12.8134 14.8748 12.9013 15.0892 13.0595 15.2474L16.5648 18.7522C16.8953 19.0826 17.4297 19.0826 17.7567 18.7522L18.7517 17.7573C19.0822 17.4269 19.0822 16.8926 18.7552 16.5622ZM8.31303 12.8113C5.82731 12.8113 3.81271 10.8006 3.81271 8.31179C3.81271 5.82648 5.82379 3.81223 8.31303 3.81223C10.7988 3.81223 12.8134 5.82297 12.8134 8.31179C12.8134 10.7971 10.8023 12.8113 8.31303 12.8113Z" fill="#5C5F62"/>
</svg>
