<svg width="20" height="20" viewBox="0 0 20 20" fill="none" xmlns="http://www.w3.org/2000/svg">
<path d="M18.7701 12.1629L17.1552 11.2702C17.3182 10.4282 17.3182 9.56452 17.1552 8.72259L18.7701 7.82985C18.9558 7.72823 19.0392 7.51775 18.9786 7.32178C18.5578 6.02985 17.8413 4.86131 16.905 3.88873C16.7609 3.73994 16.5259 3.70365 16.3439 3.80527L14.729 4.698C14.0504 4.13914 13.2695 3.70728 12.4241 3.42422V1.64237C12.4241 1.43915 12.2763 1.26132 12.0678 1.21778C10.6765 0.920196 9.25113 0.934712 7.92811 1.21778C7.71961 1.26132 7.57176 1.43915 7.57176 1.64237V3.42785C6.73018 3.71454 5.94926 4.14639 5.26689 4.70163L3.65576 3.80889C3.47001 3.70728 3.23876 3.73994 3.09471 3.89236C2.15835 4.86131 1.44187 6.02985 1.02108 7.32541C0.956637 7.52138 1.04383 7.73186 1.22958 7.83348L2.84451 8.72621C2.6815 9.56815 2.6815 10.4319 2.84451 11.2738L1.22958 12.1665C1.04383 12.2681 0.960428 12.4786 1.02108 12.6746C1.44187 13.9665 2.15835 15.1351 3.09471 16.1076C3.23876 16.2564 3.4738 16.2927 3.65576 16.1911L5.27068 15.2984C5.94926 15.8572 6.73018 16.2891 7.57555 16.5722V18.3576C7.57555 18.5609 7.7234 18.7387 7.9319 18.7822C9.32316 19.0798 10.7485 19.0653 12.0716 18.7822C12.2801 18.7387 12.4279 18.5609 12.4279 18.3576V16.5722C13.2695 16.2855 14.0504 15.8536 14.7328 15.2984L16.3477 16.1911C16.5335 16.2927 16.7647 16.2601 16.9088 16.1076C17.8451 15.1387 18.5616 13.9701 18.9824 12.6746C19.0392 12.475 18.9558 12.2645 18.7701 12.1629ZM9.99794 12.8996C8.32615 12.8996 6.96522 11.5968 6.96522 9.99637C6.96522 8.39597 8.32615 7.09316 9.99794 7.09316C11.6697 7.09316 13.0307 8.39597 13.0307 9.99637C13.0307 11.5968 11.6697 12.8996 9.99794 12.8996Z" fill="#5C5F62"/>
</svg>
