<svg width="20" height="20" viewBox="0 0 20 20" fill="none" xmlns="http://www.w3.org/2000/svg">
<path d="M18.7188 7.55022C18.8945 7.72586 19 7.93663 19 8.18252C19 8.46355 18.8945 8.67431 18.7188 8.81483L12.5312 14.1543C12.3203 14.3299 12.1094 14.4002 11.8984 14.365C11.6875 14.365 11.4766 14.2597 11.3359 14.1191C11.1953 13.9786 11.125 13.7679 11.125 13.522V10.4307C9.19141 10.4658 7.71484 10.6766 6.73047 11.0279C5.60547 11.4494 4.86719 12.1169 4.58594 13.0653C4.26953 14.0138 4.375 15.3135 4.90234 16.9645C4.97266 17.1753 4.9375 17.3158 4.83203 17.4563C4.72656 17.5968 4.58594 17.7022 4.41016 17.7373C4.23438 17.7725 4.05859 17.7373 3.91797 17.5968C3.07422 17.0348 2.40625 16.262 1.87891 15.2784C1.28125 14.2597 1 13.2409 1 12.1871C1 9.72815 1.98438 8.00688 3.95312 6.95304C5.5 6.1451 7.89062 5.72356 11.125 5.65331V2.84307C11.125 2.6323 11.1953 2.42154 11.3359 2.28102C11.4766 2.14051 11.6875 2.03513 11.8984 2C12.1094 2 12.3203 2.07026 12.5312 2.21077L18.7188 7.55022Z" fill="#5C5F62"/>
</svg>
