<svg width="20" height="20" viewBox="0 0 20 20" fill="none" xmlns="http://www.w3.org/2000/svg">
<path d="M10 20C11.8011 20 13.4677 19.5497 15 18.6492C16.5323 17.7487 17.7487 16.5323 18.6492 15C19.5497 13.4677 20 11.8011 20 10C20 8.19893 19.5497 6.53226 18.6492 5C17.7487 3.46774 16.5323 2.25134 15 1.35081C13.4677 0.450269 11.8011 0 10 0C8.19893 0 6.53226 0.450269 5 1.35081C3.46774 2.25134 2.25134 3.46774 1.35081 5C0.450269 6.53226 0 8.19893 0 10C0 11.8011 0.450269 13.4677 1.35081 15C2.25134 16.5323 3.46774 17.7487 5 18.6492C6.53226 19.5497 8.19893 20 10 20ZM10 17.4194C8.65591 17.4194 7.41263 17.0901 6.27016 16.4315C5.12769 15.7729 4.22715 14.8723 3.56855 13.7298C2.90995 12.5874 2.58065 11.3441 2.58065 10C2.58065 8.65591 2.90995 7.41263 3.56855 6.27016C4.22715 5.12769 5.12769 4.22715 6.27016 3.56855C7.41263 2.90995 8.65591 2.58065 10 2.58065C11.3441 2.58065 12.5874 2.90995 13.7298 3.56855C14.8723 4.22715 15.7729 5.12769 16.4315 6.27016C17.0901 7.41263 17.4194 8.65591 17.4194 10C17.4194 11.3441 17.0901 12.5874 16.4315 13.7298C15.7729 14.8723 14.8723 15.7729 13.7298 16.4315C12.5874 17.0901 11.3441 17.4194 10 17.4194ZM10 15.1613C10.9409 15.1613 11.8078 14.9328 12.6008 14.4758C13.3938 14.0188 14.0188 13.3938 14.4758 12.6008C14.9328 11.8078 15.1613 10.9409 15.1613 10C15.1613 9.05914 14.9328 8.1922 14.4758 7.39919C14.0188 6.60618 13.3938 5.98118 12.6008 5.52419C11.8078 5.0672 10.9409 4.83871 10 4.83871C9.05914 4.83871 8.1922 5.0672 7.39919 5.52419C6.60618 5.98118 5.98118 6.60618 5.52419 7.39919C5.0672 8.1922 4.83871 9.05914 4.83871 10C4.83871 10.9409 5.0672 11.8078 5.52419 12.6008C5.98118 13.3938 6.60618 14.0188 7.39919 14.4758C8.1922 14.9328 9.05914 15.1613 10 15.1613ZM10 12.5806C9.30108 12.5806 8.69624 12.3253 8.18548 11.8145C7.67473 11.3038 7.41935 10.6989 7.41935 10C7.41935 9.30108 7.67473 8.69624 8.18548 8.18548C8.69624 7.67473 9.30108 7.41935 10 7.41935C10.6989 7.41935 11.3038 7.67473 11.8145 8.18548C12.3253 8.69624 12.5806 9.30108 12.5806 10C12.5806 10.6989 12.3253 11.3038 11.8145 11.8145C11.3038 12.3253 10.6989 12.5806 10 12.5806Z" fill="#5C5F62"/>
</svg>
