<svg width="20" height="20" viewBox="0 0 20 20" fill="none" xmlns="http://www.w3.org/2000/svg">
<path d="M16.7812 10C16.7812 13.7452 13.7452 16.7812 10 16.7812C6.25481 16.7812 3.21875 13.7452 3.21875 10C3.21875 6.25481 6.25481 3.21875 10 3.21875C13.7452 3.21875 16.7812 6.25481 16.7812 10ZM9.21562 13.5906L14.2469 8.55937C14.4177 8.38852 14.4177 8.1115 14.2469 7.94066L13.6282 7.32195C13.4573 7.15108 13.1803 7.15108 13.0094 7.32195L8.90625 11.4251L6.99057 9.50943C6.81973 9.33858 6.54271 9.33858 6.37184 9.50943L5.75313 10.1281C5.58229 10.299 5.58229 10.576 5.75313 10.7468L8.59688 13.5906C8.76775 13.7615 9.04475 13.7615 9.21562 13.5906Z" fill="#5C5F62"/>
</svg>
