<svg width="20" height="20" viewBox="0 0 20 20" fill="none" xmlns="http://www.w3.org/2000/svg">
<path d="M7.40624 14.5C7.51041 14.5 7.59374 14.4687 7.65624 14.4062L17.0312 5.03125C17.1145 4.94791 17.1562 4.85416 17.1562 4.75C17.1562 4.64583 17.1145 4.5625 17.0312 4.5L16.1562 3.59375C16.0729 3.53125 15.9791 3.5 15.875 3.5C15.7708 3.5 15.6875 3.53125 15.625 3.59375L7.40624 11.8437L4.375 8.81249C4.3125 8.72915 4.22916 8.68749 4.125 8.68749C4.02083 8.68749 3.92708 8.72915 3.84375 8.81249L2.96875 9.68748C2.88542 9.77082 2.84375 9.86457 2.84375 9.96873C2.84375 10.0729 2.88542 10.1562 2.96875 10.2187L7.12499 14.4062C7.20832 14.4687 7.30207 14.5 7.40624 14.5Z" fill="#5C5F62"/>
</svg>
