<svg width="20" height="20" viewBox="0 0 20 20" fill="none" xmlns="http://www.w3.org/2000/svg">
<path d="M12.2745 9.5L15.686 5.80423C16.1047 5.35071 16.1047 4.6154 15.686 4.16151L14.9278 3.34014C14.5092 2.88662 13.8305 2.88662 13.4115 3.34014L10 7.03591L6.58852 3.34014C6.16989 2.88662 5.49114 2.88662 5.07216 3.34014L4.31398 4.16151C3.89534 4.61503 3.89534 5.35034 4.31398 5.80423L7.72545 9.5L4.31398 13.1958C3.89534 13.6493 3.89534 14.3846 4.31398 14.8385L5.07216 15.6599C5.4908 16.1134 6.16989 16.1134 6.58852 15.6599L10 11.9641L13.4115 15.6599C13.8301 16.1134 14.5092 16.1134 14.9278 15.6599L15.686 14.8385C16.1047 14.385 16.1047 13.6497 15.686 13.1958L12.2745 9.5Z" fill="#5C5F62"/>
</svg>
