<svg width="20" height="20" viewBox="0 0 20 20" fill="none" xmlns="http://www.w3.org/2000/svg">
<path d="M3.50851 5.85906H16.4755C16.7298 5.85906 16.984 5.60402 16.984 5.34899V4.07382C16.984 3.75503 16.7298 3.5 16.4755 3.5H3.50851C3.25425 3.5 3 3.75503 3 4.01007V5.28523C3 5.60402 3.25425 5.85906 3.50851 5.85906Z" fill="#5C5F62"/>
<path d="M3.50851 11.0233H16.4755C16.7298 11.0233 16.984 10.7683 16.984 10.5133V9.23809C16.984 8.9193 16.7298 8.72803 16.4755 8.72803H3.50851C3.25425 8.72803 3 8.9193 3 9.23809V10.5133C3 10.8321 3.25425 11.0233 3.50851 11.0233Z" fill="#5C5F62"/>
<path d="M3.38138 16.2516H12.7253C12.9159 16.2516 13.1066 15.9966 13.1066 15.7415V14.4664C13.1066 14.1476 12.9159 13.9563 12.7253 13.9563H3.38138C3.19069 13.9563 3 14.2113 3 14.4664V15.7415C3 15.9966 3.19069 16.2516 3.38138 16.2516Z" fill="#5C5F62"/>
<path d="M15.2042 13.6375L16.8568 14.8489C17.0475 14.9764 17.0475 15.1677 16.8568 15.2952L15.2042 16.5066C14.9499 16.7617 14.4414 16.5704 14.4414 16.2516V13.8288C14.4414 13.5737 14.9499 13.4462 15.2042 13.6375Z" fill="#5C5F62"/>
</svg>
