<svg width="20" height="20" viewBox="0 0 20 20" fill="none" xmlns="http://www.w3.org/2000/svg">
<path d="M17.5869 5.16108L16.2362 6.51173C16.0985 6.64943 15.8759 6.64943 15.7382 6.51173L12.4861 3.25963C12.3484 3.12192 12.3484 2.89926 12.4861 2.76156L13.8367 1.41091C14.3846 0.863031 15.2753 0.863031 15.8261 1.41091L17.5869 3.17173C18.1377 3.71961 18.1377 4.61027 17.5869 5.16108ZM11.3259 3.92177L3.63215 11.6155L3.01103 15.1752C2.92606 15.6557 3.34502 16.0717 3.82552 15.9897L7.38525 15.3657L15.079 7.67194C15.2167 7.53424 15.2167 7.31157 15.079 7.17387L11.8269 3.92177C11.6862 3.78406 11.4636 3.78406 11.3259 3.92177ZM5.57755 13.4203H6.98387V14.4838L5.09413 14.8148L4.18295 13.9037L4.51402 12.0139H5.57755V13.4203Z" fill="#5C5F62"/>
</svg>
