<svg width="20" height="20" viewBox="0 0 20 20" fill="none" xmlns="http://www.w3.org/2000/svg">
<path d="M17.3125 3H2.6875C1.75551 3 1 3.72753 1 4.625V14.375C1 15.2725 1.75551 16 2.6875 16H17.3125C18.2445 16 19 15.2725 19 14.375V4.625C19 3.72753 18.2445 3 17.3125 3ZM17.3125 4.625V6.00642C16.5242 6.62456 15.2675 7.58575 12.5809 9.61155C11.9889 10.06 10.816 11.1374 10 11.1249C9.18409 11.1376 8.01089 10.0598 7.41907 9.61155C4.73289 7.58606 3.47588 6.62466 2.6875 6.00642V4.625H17.3125ZM2.6875 14.375V8.0916C3.49307 8.70947 4.63547 9.57651 6.37673 10.8895C7.14514 11.472 8.49081 12.7578 10 12.75C11.5018 12.7578 12.8304 11.4906 13.623 10.8898C15.3642 9.57682 16.5069 8.70954 17.3125 8.09163V14.375H2.6875Z" fill="#4B5563"/>
</svg>
