<svg width="20" height="20" viewBox="0 0 20 20" fill="none" xmlns="http://www.w3.org/2000/svg">
<path d="M10 18C12.1217 18 14.1566 17.1571 15.6569 15.6569C17.1571 14.1566 18 12.1217 18 10C18 7.87827 17.1571 5.84344 15.6569 4.34315C14.1566 2.84285 12.1217 2 10 2C7.87827 2 5.84344 2.84285 4.34315 4.34315C2.84285 5.84344 2 7.87827 2 10C2 12.1217 2.84285 14.1566 4.34315 15.6569C5.84344 17.1571 7.87827 18 10 18ZM7.46875 7.46875C7.7625 7.175 8.2375 7.175 8.52812 7.46875L9.99687 8.9375L11.4656 7.46875C11.7594 7.175 12.2344 7.175 12.525 7.46875C12.8156 7.7625 12.8187 8.2375 12.525 8.52812L11.0562 9.99687L12.525 11.4656C12.8187 11.7594 12.8187 12.2344 12.525 12.525C12.2312 12.8156 11.7562 12.8187 11.4656 12.525L9.99687 11.0562L8.52812 12.525C8.23437 12.8187 7.75938 12.8187 7.46875 12.525C7.17812 12.2312 7.175 11.7562 7.46875 11.4656L8.9375 9.99687L7.46875 8.52812C7.175 8.23437 7.175 7.75938 7.46875 7.46875Z" fill="#4B5563"/>
</svg>

