<svg width="20" height="20" viewBox="0 0 20 20" fill="none" xmlns="http://www.w3.org/2000/svg">
<path d="M18.1875 9.6875C18.1875 8.26815 17.8004 6.91331 17.0907 5.6875C16.381 4.46169 15.4133 3.49395 14.1875 2.78427C12.9617 2.0746 11.6069 1.6875 10.1875 1.6875C8.73589 1.6875 7.41331 2.0746 6.1875 2.78427C4.96169 3.49395 3.96169 4.46169 3.25202 5.6875C2.54234 6.91331 2.1875 8.26815 2.1875 9.6875C2.1875 11.1391 2.54234 12.4617 3.25202 13.6875C3.96169 14.9133 4.96169 15.9133 6.1875 16.623C7.41331 17.3327 8.73589 17.6875 10.1875 17.6875C11.6069 17.6875 12.9617 17.3327 14.1875 16.623C15.4133 15.9133 16.381 14.9133 17.0907 13.6875C17.8004 12.4617 18.1875 11.1391 18.1875 9.6875ZM10.1875 11.3004C10.5746 11.3004 10.9294 11.4617 11.2198 11.752C11.5101 12.0423 11.6714 12.3972 11.6714 12.7843C11.6714 13.2036 11.5101 13.5585 11.2198 13.8488C10.9294 14.1391 10.5746 14.2681 10.1875 14.2681C9.76815 14.2681 9.41331 14.1391 9.12298 13.8488C8.83266 13.5585 8.70363 13.2036 8.70363 12.7843C8.70363 12.3972 8.83266 12.0423 9.12298 11.752C9.41331 11.4617 9.76815 11.3004 10.1875 11.3004ZM8.76815 5.97782C8.76815 5.84879 8.8004 5.75202 8.86492 5.6875C8.92944 5.62298 9.02621 5.55847 9.15524 5.55847H11.2198C11.3165 5.55847 11.4133 5.62298 11.4778 5.6875C11.5423 5.75202 11.6069 5.84879 11.6069 5.97782L11.3488 10.3649C11.3488 10.4617 11.2843 10.5585 11.2198 10.623C11.1552 10.6875 11.0585 10.7198 10.9617 10.7198H9.41331C9.28427 10.7198 9.1875 10.6875 9.12298 10.623C9.05847 10.5585 9.02621 10.4617 9.02621 10.3649L8.76815 5.97782Z" fill="#5C5F62"/>
</svg>
