<svg width="20" height="20" viewBox="0 0 20 20" fill="none" xmlns="http://www.w3.org/2000/svg">
<path d="M3.90625 4C3.1296 4 2.5 4.61346 2.5 5.37019C2.5 6.12693 3.1296 6.74038 3.90625 6.74038C4.6829 6.74038 5.3125 6.12693 5.3125 5.37019C5.3125 4.61346 4.6829 4 3.90625 4ZM3.90625 8.56731C3.1296 8.56731 2.5 9.18076 2.5 9.9375C2.5 10.6942 3.1296 11.3077 3.90625 11.3077C4.6829 11.3077 5.3125 10.6942 5.3125 9.9375C5.3125 9.18076 4.6829 8.56731 3.90625 8.56731ZM3.90625 13.1346C3.1296 13.1346 2.5 13.7481 2.5 14.5048C2.5 15.2615 3.1296 15.875 3.90625 15.875C4.6829 15.875 5.3125 15.2615 5.3125 14.5048C5.3125 13.7481 4.6829 13.1346 3.90625 13.1346ZM17.0312 13.5913H7.65625C7.39737 13.5913 7.1875 13.7958 7.1875 14.0481V14.9615C7.1875 15.2138 7.39737 15.4183 7.65625 15.4183H17.0312C17.2901 15.4183 17.5 15.2138 17.5 14.9615V14.0481C17.5 13.7958 17.2901 13.5913 17.0312 13.5913ZM17.0312 4.45673H7.65625C7.39737 4.45673 7.1875 4.66122 7.1875 4.91346V5.82692C7.1875 6.07917 7.39737 6.28365 7.65625 6.28365H17.0312C17.2901 6.28365 17.5 6.07917 17.5 5.82692V4.91346C17.5 4.66122 17.2901 4.45673 17.0312 4.45673ZM17.0312 9.02404H7.65625C7.39737 9.02404 7.1875 9.22852 7.1875 9.48077V10.3942C7.1875 10.6465 7.39737 10.851 7.65625 10.851H17.0312C17.2901 10.851 17.5 10.6465 17.5 10.3942V9.48077C17.5 9.22852 17.2901 9.02404 17.0312 9.02404Z" fill="#5C5F62"/>
</svg>
