<svg width="20" height="20" viewBox="0 0 20 20" fill="none" xmlns="http://www.w3.org/2000/svg">
<path d="M16.5625 13.5714H7.375V13.125C7.375 12.8795 7.17812 12.6786 6.9375 12.6786H6.0625C5.82187 12.6786 5.625 12.8795 5.625 13.125V13.5714H3.4375C3.19688 13.5714 3 13.7723 3 14.0179V14.9107C3 15.1562 3.19688 15.3571 3.4375 15.3571H5.625V15.8036C5.625 16.0491 5.82187 16.25 6.0625 16.25H6.9375C7.17812 16.25 7.375 16.0491 7.375 15.8036V15.3571H16.5625C16.8031 15.3571 17 15.1562 17 14.9107V14.0179C17 13.7723 16.8031 13.5714 16.5625 13.5714ZM16.5625 9.10714H14.375V8.66071C14.375 8.41518 14.1781 8.21429 13.9375 8.21429H13.0625C12.8219 8.21429 12.625 8.41518 12.625 8.66071V9.10714H3.4375C3.19688 9.10714 3 9.30804 3 9.55357V10.4464C3 10.692 3.19688 10.8929 3.4375 10.8929H12.625V11.3393C12.625 11.5848 12.8219 11.7857 13.0625 11.7857H13.9375C14.1781 11.7857 14.375 11.5848 14.375 11.3393V10.8929H16.5625C16.8031 10.8929 17 10.692 17 10.4464V9.55357C17 9.30804 16.8031 9.10714 16.5625 9.10714ZM16.5625 4.64286H10.875V4.19643C10.875 3.95089 10.6781 3.75 10.4375 3.75H9.5625C9.32187 3.75 9.125 3.95089 9.125 4.19643V4.64286H3.4375C3.19688 4.64286 3 4.84375 3 5.08929V5.98214C3 6.22768 3.19688 6.42857 3.4375 6.42857H9.125V6.875C9.125 7.12054 9.32187 7.32143 9.5625 7.32143H10.4375C10.6781 7.32143 10.875 7.12054 10.875 6.875V6.42857H16.5625C16.8031 6.42857 17 6.22768 17 5.98214V5.08929C17 4.84375 16.8031 4.64286 16.5625 4.64286Z" fill="#5C5F62"/>
</svg>
