<svg width="20" height="20" viewBox="0 0 20 20" fill="none" xmlns="http://www.w3.org/2000/svg">
<path d="M10 2C5.58203 2 2 5.58332 2 10C2 14.4193 5.58203 18 10 18C14.418 18 18 14.4193 18 10C18 5.58332 14.418 2 10 2ZM10 5.54839C10.7483 5.54839 11.3548 6.15497 11.3548 6.90323C11.3548 7.65148 10.7483 8.25806 10 8.25806C9.25174 8.25806 8.64516 7.65148 8.64516 6.90323C8.64516 6.15497 9.25174 5.54839 10 5.54839ZM11.8065 13.7419C11.8065 13.9557 11.6331 14.129 11.4194 14.129H8.58064C8.36687 14.129 8.19355 13.9557 8.19355 13.7419V12.9677C8.19355 12.754 8.36687 12.5806 8.58064 12.5806H8.96774V10.5161H8.58064C8.36687 10.5161 8.19355 10.3428 8.19355 10.129V9.35484C8.19355 9.14106 8.36687 8.96774 8.58064 8.96774H10.6452C10.8589 8.96774 11.0323 9.14106 11.0323 9.35484V12.5806H11.4194C11.6331 12.5806 11.8065 12.754 11.8065 12.9677V13.7419Z" fill="#4B5563"/>
</svg>
