<svg width="20" height="20" viewBox="0 0 20 20" fill="none" xmlns="http://www.w3.org/2000/svg">
<path d="M17.6 8.2H16V6.6C16 6.38 15.82 6.2 15.6 6.2H14.8C14.58 6.2 14.4 6.38 14.4 6.6V8.2H12.8C12.58 8.2 12.4 8.38 12.4 8.6V9.4C12.4 9.62 12.58 9.8 12.8 9.8H14.4V11.4C14.4 11.62 14.58 11.8 14.8 11.8H15.6C15.82 11.8 16 11.62 16 11.4V9.8H17.6C17.82 9.8 18 9.62 18 9.4V8.6C18 8.38 17.82 8.2 17.6 8.2ZM7.6 9.4C9.3675 9.4 10.8 7.9675 10.8 6.2C10.8 4.4325 9.3675 3 7.6 3C5.8325 3 4.4 4.4325 4.4 6.2C4.4 7.9675 5.8325 9.4 7.6 9.4ZM9.84 10.2H9.4225C8.8675 10.455 8.25 10.6 7.6 10.6C6.95 10.6 6.335 10.455 5.7775 10.2H5.36C3.505 10.2 2 11.705 2 13.56V14.6C2 15.2625 2.5375 15.8 3.2 15.8H12C12.6625 15.8 13.2 15.2625 13.2 14.6V13.56C13.2 11.705 11.695 10.2 9.84 10.2Z" fill="#5C5F62"/>
</svg>
