<svg width="20" height="20" viewBox="0 0 20 20" fill="none" xmlns="http://www.w3.org/2000/svg">
<path d="M14.7386 2.875H12.1818C12.1818 1.84082 11.2646 1 10.1364 1C9.00817 1 8.09091 1.84082 8.09091 2.875H5.53409C4.68714 2.875 4 3.50488 4 4.28125V14.5938C4 15.3701 4.68714 16 5.53409 16H14.7386C15.5856 16 16.2727 15.3701 16.2727 14.5938V4.28125C16.2727 3.50488 15.5856 2.875 14.7386 2.875ZM10.1364 2.17188C10.5614 2.17188 10.9034 2.48535 10.9034 2.875C10.9034 3.26465 10.5614 3.57812 10.1364 3.57812C9.71129 3.57812 9.36932 3.26465 9.36932 2.875C9.36932 2.48535 9.71129 2.17188 10.1364 2.17188ZM14.7386 14.418C14.7386 14.5146 14.6523 14.5938 14.5469 14.5938H5.72585C5.62038 14.5938 5.53409 14.5146 5.53409 14.418V4.45703C5.53409 4.36035 5.62038 4.28125 5.72585 4.28125H7.06818V5.33594C7.06818 5.5293 7.24077 5.6875 7.4517 5.6875H12.821C13.032 5.6875 13.2045 5.5293 13.2045 5.33594V4.28125H14.5469C14.6523 4.28125 14.7386 4.36035 14.7386 4.45703V14.418Z" fill="#5C5F62"/>
</svg>
