<svg width="20" height="20" viewBox="0 0 20 20" fill="none" xmlns="http://www.w3.org/2000/svg">
<path d="M18 5.90909V6.39394C18 6.52783 17.8806 6.63636 17.7333 6.63636H16.9333V7C16.9333 7.20082 16.7542 7.36364 16.5333 7.36364H3.46667C3.24577 7.36364 3.06667 7.20082 3.06667 7V6.63636H2.26667C2.11939 6.63636 2 6.52783 2 6.39394V5.90909C2 5.81101 2.06501 5.7226 2.1647 5.68509L9.89803 3.01843C9.96332 2.99386 10.0367 2.99386 10.102 3.01843L17.8353 5.68509C17.935 5.7226 18 5.81101 18 5.90909ZM17.2 16.0909H2.8C2.35817 16.0909 2 16.4165 2 16.8182V17.303C2 17.4369 2.11939 17.5455 2.26667 17.5455H17.7333C17.8806 17.5455 18 17.4369 18 17.303V16.8182C18 16.4165 17.6418 16.0909 17.2 16.0909ZM4.32168 8.09091V14.3247H3.12587C2.90575 14.3247 2.72727 14.4991 2.72727 14.7143V15.3636H16.5455V14.7143C16.5455 14.4991 16.367 14.3247 16.1469 14.3247H14.951V8.09091H12.8252V14.3247H10.6993V8.09091H8.57343V14.3247H6.44755V8.09091H4.32168Z" fill="#5C5F62"/>
</svg>
