<svg width="20" height="20" viewBox="0 0 20 20" fill="none" xmlns="http://www.w3.org/2000/svg">
<path d="M10 2.5C5.85685 2.5 2.5 5.85685 2.5 10C2.5 14.1431 5.85685 17.5 10 17.5C14.1431 17.5 17.5 14.1431 17.5 10C17.5 5.85685 14.1431 2.5 10 2.5ZM12.897 12.0916L12.3111 12.824C12.2335 12.9211 12.1204 12.9834 11.9969 12.9971C11.8733 13.0109 11.7493 12.9749 11.6523 12.8973L9.68944 11.4407C9.41163 11.2183 9.24996 10.8816 9.25 10.5258V5.96874C9.25 5.70986 9.45986 5.5 9.71873 5.5H10.6562C10.9151 5.5 11.1249 5.70986 11.1249 5.96874V10.1874L12.8241 11.4325C12.9212 11.5102 12.9835 11.6233 12.9972 11.7469C13.0108 11.8706 12.9748 11.9946 12.897 12.0916Z" fill="#5C5F62"/>
</svg>
