<svg width="20" height="20" viewBox="0 0 20 20" fill="none" xmlns="http://www.w3.org/2000/svg">
<path d="M16.796 14.9685L13.8749 12.0478C13.743 11.916 13.5643 11.8428 13.3768 11.8428H12.8992C13.7079 10.8087 14.1884 9.50806 14.1884 8.09315C14.1884 4.72727 11.4607 2 8.0942 2C4.72774 2 2 4.72727 2 8.09315C2 11.459 4.72774 14.1863 8.0942 14.1863C9.50934 14.1863 10.8102 13.7059 11.8445 12.8974V13.3749C11.8445 13.5623 11.9177 13.741 12.0496 13.8729L14.9707 16.7935C15.2461 17.0688 15.6914 17.0688 15.9639 16.7935L16.7931 15.9645C17.0685 15.6891 17.0685 15.2438 16.796 14.9685ZM8.0942 11.8428C6.02276 11.8428 4.34392 10.1672 4.34392 8.09315C4.34392 6.02207 6.01982 4.34352 8.0942 4.34352C10.1656 4.34352 11.8445 6.01914 11.8445 8.09315C11.8445 10.1642 10.1686 11.8428 8.0942 11.8428Z" fill="#5C5F62"/>
</svg>
