<svg width="20" height="20" viewBox="0 0 20 20" fill="none" xmlns="http://www.w3.org/2000/svg">
<path d="M16.8212 11.6823L15.5651 10.9879C15.6919 10.3331 15.6919 9.66129 15.5651 9.00645L16.8212 8.3121C16.9657 8.23307 17.0305 8.06936 16.9833 7.91694C16.6561 6.91211 16.0988 6.00324 15.3705 5.24679C15.2585 5.13107 15.0757 5.10284 14.9342 5.18187L13.6781 5.87623C13.1503 5.44155 12.5429 5.10566 11.8854 4.8855V3.49962C11.8854 3.34156 11.7704 3.20325 11.6083 3.16938C10.5262 2.93793 9.41755 2.94922 8.38853 3.16938C8.22636 3.20325 8.11137 3.34156 8.11137 3.49962V4.88833C7.45681 5.11131 6.84942 5.44719 6.31869 5.87905L5.06559 5.1847C4.92112 5.10566 4.74126 5.13107 4.62922 5.24961C3.90094 6.00324 3.34368 6.91211 3.0164 7.91977C2.96627 8.07218 3.03409 8.23589 3.17856 8.31493L4.43462 9.00928C4.30783 9.66411 4.30783 10.3359 4.43462 10.9907L3.17856 11.6851C3.03409 11.7641 2.96922 11.9278 3.0164 12.0802C3.34368 13.0851 3.90094 13.9939 4.62922 14.7504C4.74126 14.8661 4.92406 14.8943 5.06559 14.8153L6.32164 14.121C6.84942 14.5556 7.45681 14.8915 8.11432 15.1117V16.5004C8.11432 16.6584 8.22931 16.7967 8.39148 16.8306C9.47357 17.0621 10.5822 17.0508 11.6112 16.8306C11.7734 16.7967 11.8884 16.6584 11.8884 16.5004V15.1117C12.5429 14.8887 13.1503 14.5528 13.6811 14.121L14.9371 14.8153C15.0816 14.8943 15.2614 14.8689 15.3735 14.7504C16.1018 13.9968 16.659 13.0879 16.9863 12.0802C17.0305 11.925 16.9657 11.7613 16.8212 11.6823ZM9.9984 12.2552C8.69812 12.2552 7.63961 11.2419 7.63961 9.99718C7.63961 8.75242 8.69812 7.73912 9.9984 7.73912C11.2987 7.73912 12.3572 8.75242 12.3572 9.99718C12.3572 11.2419 11.2987 12.2552 9.9984 12.2552Z" fill="#5C5F62"/>
</svg>
