<svg width="20" height="20" viewBox="0 0 20 20" fill="none" xmlns="http://www.w3.org/2000/svg">
<path d="M9.99993 13.4039C8.2222 13.4039 6.78314 12.0237 6.65072 10.2745L4.19213 8.36862C3.86893 8.77533 3.57151 9.20532 3.33151 9.67551C3.27789 9.7819 3.24996 9.89943 3.24996 10.0186C3.24996 10.1378 3.27789 10.2554 3.33151 10.3618C4.60252 12.8493 7.11876 14.5324 9.99993 14.5324C10.6306 14.5324 11.2391 14.4383 11.8255 14.2865L10.6093 13.3425C10.4084 13.3815 10.2045 13.402 9.99993 13.4039ZM17.3551 14.7698L14.7641 12.7611C15.5511 12.0958 16.1984 11.2801 16.6683 10.3615C16.722 10.2551 16.7499 10.1376 16.7499 10.0184C16.7499 9.8992 16.722 9.78166 16.6683 9.67528C15.3973 7.18773 12.8811 5.50468 9.99993 5.50468C8.79325 5.50614 7.60617 5.81086 6.54712 6.39099L3.56541 4.07929C3.52653 4.04894 3.48207 4.02657 3.43457 4.01347C3.38706 4.00036 3.33745 3.99677 3.28857 4.00291C3.23968 4.00904 3.19248 4.02478 3.14966 4.04922C3.10684 4.07366 3.06924 4.10633 3.03901 4.14535L2.57893 4.73944C2.5179 4.81819 2.49055 4.91804 2.5029 5.01701C2.51526 5.11599 2.56629 5.20599 2.64479 5.26723L16.4344 15.9577C16.4733 15.9881 16.5178 16.0105 16.5653 16.0236C16.6128 16.0367 16.6624 16.0403 16.7113 16.0341C16.7602 16.028 16.8074 16.0123 16.8502 15.9878C16.893 15.9634 16.9306 15.9307 16.9608 15.8917L17.4212 15.2976C17.4822 15.2188 17.5095 15.119 17.4971 15.02C17.4847 14.921 17.4336 14.831 17.3551 14.7698ZM13.0491 11.4314L12.128 10.7172C12.2056 10.4923 12.2468 10.2565 12.2499 10.0185C12.2545 9.67017 12.1776 9.3256 12.0253 9.01248C11.873 8.69937 11.6497 8.42644 11.3732 8.21562C11.0967 8.0048 10.7747 7.86196 10.4332 7.79859C10.0917 7.73521 9.74012 7.75306 9.40673 7.8507C9.54806 8.0428 9.62451 8.27516 9.62493 8.5139C9.62143 8.59335 9.60933 8.67218 9.58883 8.749L7.86361 7.41154C8.4629 6.90919 9.21893 6.63372 9.99993 6.63314C10.4432 6.63289 10.8822 6.72029 11.2918 6.89033C11.7014 7.06037 12.0735 7.30973 12.387 7.62414C12.7004 7.93855 12.949 8.31185 13.1185 8.7227C13.288 9.13354 13.3752 9.57387 13.3749 10.0185C13.3749 10.527 13.2509 11.001 13.0491 11.4317V11.4314Z" fill="#5C5F62"/>
</svg>
