<svg width="20" height="20" viewBox="0 0 20 20" fill="none" xmlns="http://www.w3.org/2000/svg">
<path d="M9.99885 2C10.4426 2 10.852 2.26786 11.077 2.70714L17.827 15.85C18.0551 16.2929 18.0551 16.8393 17.8332 17.2821C17.6113 17.725 17.1957 18 16.7488 18H3.24885C2.80197 18 2.38635 17.725 2.16447 17.2821C1.9426 16.8393 1.94572 16.2893 2.17072 15.85L8.92072 2.70714C9.14572 2.26786 9.5551 2 9.99885 2ZM9.99885 6.57143C9.58322 6.57143 9.24885 6.95357 9.24885 7.42857V11.4286C9.24885 11.9036 9.58322 12.2857 9.99885 12.2857C10.4145 12.2857 10.7488 11.9036 10.7488 11.4286V7.42857C10.7488 6.95357 10.4145 6.57143 9.99885 6.57143ZM10.9988 14.5714C10.9988 14.2683 10.8935 13.9776 10.706 13.7633C10.5184 13.549 10.2641 13.4286 9.99885 13.4286C9.73363 13.4286 9.47928 13.549 9.29174 13.7633C9.1042 13.9776 8.99885 14.2683 8.99885 14.5714C8.99885 14.8745 9.1042 15.1652 9.29174 15.3796C9.47928 15.5939 9.73363 15.7143 9.99885 15.7143C10.2641 15.7143 10.5184 15.5939 10.706 15.3796C10.8935 15.1652 10.9988 14.8745 10.9988 14.5714Z" fill="#4B5563"/>
</svg>